<svg width="512" height="512" viewBox="0 0 512 512" fill="none" xmlns="http://www.w3.org/2000/svg">
  <circle cx="256" cy="256" r="256" fill="#243040"/>
  <path d="M256 64C176.5 64 112 128.5 112 208v144c0 8.8 7.2 16 16 16h256c8.8 0 16-7.2 16-16V208c0-79.5-64.5-144-144-144zM144 208c0-61.9 50.1-112 112-112s112 50.1 112 112v128H144V208z" fill="#D4B982"/>
  <path d="M256 128c-44.2 0-80 35.8-80 80v64c0 8.8 7.2 16 16 16h128c8.8 0 16-7.2 16-16v-64c0-44.2-35.8-80-80-80zm-48 80c0-26.5 21.5-48 48-48s48 21.5 48 48v48H208v-48z" fill="#D4B982"/>
</svg>